<?xml version="1.0" encoding="UTF-8"?>
<COLLADA xmlns="http://www.collada.org/2005/11/COLLADASchema" version="1.4.1">
<!--
# File generated by ImageToStl.com - Free Image and 3D model conversion tools
-->
  <asset>
    <contributor>
      <author>ImageToStl.com</author>
      <authoring_tool>ImageToStl.com</authoring_tool>
    </contributor>
    <created>2026-04-21T07:23:53</created>
    <modified>2026-04-21T07:23:53</modified>
    <up_axis>Z_UP</up_axis>
  </asset>
  <library_effects>
    <effect id="effect_0">
        <profile_COMMON>
          <technique sid="common">
            <phong>
              <diffuse>
                <color>0.85 0.85 0.85 1</color>
              </diffuse>
              <specular>
                <color>0.05 0.05 0.05 1</color>
              </specular>
              <shininess>
                <float>64</float>
              </shininess>
            </phong>
          </technique>
        </profile_COMMON>
    </effect>
  </library_effects>
  <library_materials>
    <material id="mat_0">
      <instance_effect url="#effect_0"/>
    </material>
  </library_materials>
  <library_geometries>
    <geometry id="geometry_29e0380d_11b9_4f4e_940f_9216b9cb993b">
      <mesh>
        <source id="pos_0">
          <float_array id="pos_0-array" count="471">200 8560 3000 200 8360 -0 200 8360 3000 200 8560 -0 5160 8560 3000 5160 8560 -0 5160 8360 3000 5160 8360 -0 12752 -6000 0 5160 0 -0 5160 -6000 0 5160 8560 -0 5160 10760 -0 0 10960 -0 200 10760 -0 5160 10960 -0 200 8560 -0 5160 13740 -0 12752 13740 -0 0 0 -0 12752 13740 -300 5160 10960 -300 5160 13740 -300 5160 0 -300 5160 -6000 -300 12752 -6000 -300 0 0 -300 0 10960 -300 7120 13540 -0 7320 13540 3000 7320 13540 -0 7120 13540 3000 7320 4380 3000 7120 4380 -0 7320 4380 -0 7120 4380 3000 7320 9360 -0 7320 5680 2100 7320 5680 -0 7320 10260 2100 7320 10260 -0 7320 4780 -0 7320 4780 2100 7320 9360 2100 7120 4780 2100 7120 5680 2100 7120 9360 2100 7120 5680 -0 7120 10260 2100 7120 10260 -0 7120 9360 -0 7120 4780 -0 200 200 3000 200 0 0 200 0 3000 200 200 0 12552 200 0 12552 0 3000 12552 0 0 12552 200 3000 6460 0 0 6460 200 0 5560 200 0 5560 200 2100 6460 200 2100 6460 0 2100 5560 0 2100 5560 0 0 200 10960 0 0 0 0 0 10960 0 0 10960 3000 0 0 3000 200 10960 3000 5160 0 -0 5360 0 3000 5360 0 -0 5160 0 3000 5360 -6000 3000 5160 -6000 -0 5360 -6000 -0 5160 -6000 3000 7320 9160 3000 7320 8960 -0 7320 8960 3000 7320 9160 -0 12552 9160 3000 12552 9160 -0 12552 8960 3000 12552 8960 -0 7320 4580 3000 7320 4380 -0 7320 4580 -0 12552 4580 -0 12552 4380 3000 12552 4380 -0 12552 4580 3000 5360 4370 3000 5160 4370 -0 5360 4370 -0 5160 4370 3000 5160 13740 3000 5360 13740 3000 5160 4770 2100 5160 5670 2100 5160 9160 2100 5160 5670 -0 5160 10560 2100 5160 10560 -0 5160 13740 -0 5160 13740 2100 5160 9160 -0 5160 4770 -0 5360 4770 -0 5360 9160 -0 5360 5670 2100 5360 5670 -0 5360 13740 -0 5360 10560 2100 5360 10560 -0 5360 4770 2100 5360 9160 2100 5360 13740 2100 200 4570 3000 200 4370 0 200 4370 3000 200 4570 0 5160 4570 3000 5160 4570 -0 5160 4370 -0 5360 13540 -0 5360 13540 3000 5360 13740 -0 12552 13740 3000 12552 13740 -0 12552 13540 3000 12552 13540 -0 5360 -5800 3000 5360 -6000 0 5360 -5800 0 12552 -5800 0 12552 -6000 3000 12552 -6000 0 12552 -5800 3000 12552 13740 0 12752 13740 3000 12752 13740 0 12752 -6000 3000 12752 -6000 0 12552 -6000 0 200 10760 -0 200 10760 3000 200 10960 -0 5160 10960 3000 5160 10960 -0 5160 10760 3000 5160 10760 -0</float_array>
          <technique_common>
            <accessor source="#pos_0-array" count="471" stride="3">
              <param name="X" type="float"/>
              <param name="Y" type="float"/>
              <param name="Z" type="float"/>
            </accessor>
          </technique_common>
        </source>
        <source id="norm_0">
          <float_array id="norm_0-array" count="84">-1 -0 0 -0 1 0 0 -1 0 -0 -0 -1 1 0 -0 0 0 1 0 0 1 -0 -0 -1 1 -0 -0 -0 1 -0 -1 0 0 -0 -1 0 0 1 0 0 -1 0 0 -0 1 1 0 0 0 0 1 -0 -0 -1 0 0 -1 -0 0 -1 0 1 0 -0 -0 -1 -1 -0 -0 -0 -0 -1 1 -0 0 -0 0 -1 -0 0 -1 -0 1 -0</float_array>
          <technique_common>
            <accessor source="#norm_0-array" count="84" stride="3">
              <param name="X" type="float"/>
              <param name="Y" type="float"/>
              <param name="Z" type="float"/>
            </accessor>
          </technique_common>
        </source>
        <vertices id="vert_0">
          <input semantic="POSITION" source="#pos_0"/>
        </vertices>
        <triangles count="276" material="mat_0">
          <input semantic="VERTEX" source="#vert_0" offset="0"/>
          <input semantic="NORMAL" source="#norm_0" offset="1"/>
          <p>0 0 1 0 2 0 1 0 0 0 3 0 3 1 4 1 5 1 4 1 3 1 0 1 6 2 1 2 7 2 1 2 6 2 2 2 5 3 1 3 3 3 1 3 5 3 7 3 5 4 6 4 7 4 6 4 5 4 4 4 6 5 0 5 2 5 0 5 6 5 4 5 8 6 9 6 10 6 9 6 8 6 11 6 11 6 8 6 12 6 13 6 14 6 15 6 14 6 13 6 16 6 15 6 14 6 12 6 15 6 12 6 17 6 17 6 12 6 18 6 18 6 12 6 8 6 19 6 16 6 13 6 16 6 19 6 9 6 16 6 9 6 11 6 20 7 21 7 22 7 21 7 20 7 23 7 23 7 20 7 24 7 24 7 20 7 25 7 21 7 26 7 27 7 26 7 21 7 23 7 20 8 8 8 25 8 8 8 20 8 18 8 22 9 18 9 20 9 18 9 22 9 17 9 9 10 24 10 10 10 24 10 9 10 23 10 25 11 10 11 24 11 10 11 25 11 8 11 17 10 21 10 15 10 21 10 17 10 22 10 13 10 26 10 19 10 26 10 13 10 27 10 13 12 21 12 27 12 21 12 13 12 15 12 9 13 26 13 23 13 26 13 9 13 19 13 11 14 14 14 16 14 14 14 11 14 12 14 28 12 29 12 30 12 29 12 28 12 31 12 32 13 33 13 34 13 33 13 32 13 35 13 36 15 37 15 38 15 30 15 39 15 40 15 41 15 32 15 34 15 32 15 41 15 42 15 32 15 42 15 29 15 29 15 42 15 37 15 29 15 37 15 43 15 43 15 37 15 36 15 29 15 43 15 39 15 29 15 39 15 30 15 32 16 31 16 35 16 31 16 32 16 29 16 35 10 44 10 33 10 44 10 35 10 31 10 44 10 31 10 45 10 45 10 31 10 46 10 45 10 46 10 47 10 46 10 31 10 48 10 48 10 31 10 49 10 49 10 31 10 28 10 50 10 47 10 46 10 51 10 33 10 44 10 30 17 49 17 28 17 49 17 30 17 40 17 46 12 36 12 50 12 36 12 46 12 43 12 39 18 46 18 48 18 46 18 39 18 43 18 39 13 49 13 40 13 49 13 39 13 48 13 36 18 47 18 50 18 47 18 36 18 38 18 44 12 41 12 51 12 41 12 44 12 42 12 37 18 44 18 45 18 44 18 37 18 42 18 37 13 47 13 38 13 47 13 37 13 45 13 41 19 33 19 51 19 33 19 41 19 34 19 52 10 53 10 54 10 53 10 52 10 55 10 56 15 57 15 58 15 57 15 56 15 59 15 56 18 60 18 61 18 60 18 56 18 58 18 52 20 62 20 55 20 62 20 52 20 63 20 63 20 52 20 64 20 64 20 56 20 61 20 56 20 64 20 59 20 59 20 64 20 52 20 57 16 52 16 54 16 52 16 57 16 59 16 57 13 60 13 58 13 60 13 57 13 65 13 65 13 57 13 66 13 66 13 53 13 67 13 53 13 66 13 54 13 54 13 66 13 57 13 62 15 66 15 67 15 66 15 62 15 63 15 64 18 66 18 63 18 66 18 64 18 65 18 64 10 60 10 65 10 60 10 64 10 61 10 62 18 53 18 55 18 53 18 62 18 67 18 68 18 69 18 70 18 69 18 68 18 53 18 54 16 71 16 72 16 71 16 54 16 73 16 68 15 54 15 53 15 54 15 68 15 73 15 71 12 68 12 70 12 68 12 71 12 73 12 71 10 69 10 72 10 69 10 71 10 70 10 54 13 69 13 53 13 69 13 54 13 72 13 74 12 75 12 76 12 75 12 74 12 77 12 78 13 79 13 80 13 79 13 78 13 81 13 76 15 78 15 80 15 78 15 76 15 75 15 78 16 77 16 81 16 77 16 78 16 75 16 77 10 79 10 81 10 79 10 77 10 74 10 76 21 79 21 74 21 79 21 76 21 80 21 82 0 83 0 84 0 83 0 82 0 85 0 85 1 86 1 87 1 86 1 85 1 82 1 88 2 83 2 89 2 83 2 88 2 84 2 87 3 83 3 85 3 83 3 87 3 89 3 87 4 88 4 89 4 88 4 87 4 86 4 88 5 82 5 84 5 82 5 88 5 86 5 90 10 91 10 32 10 91 10 90 10 92 10 93 15 94 15 95 15 94 15 93 15 96 15 94 13 91 13 95 13 91 13 94 13 32 13 93 18 91 18 92 18 91 18 93 18 95 18 90 12 93 12 92 12 93 12 90 12 96 12 94 16 90 16 32 16 90 16 94 16 96 16 97 13 98 13 99 13 98 13 97 13 100 13 97 16 101 16 100 16 101 16 97 16 102 16 100 22 103 22 98 22 103 22 100 22 101 22 103 22 101 22 104 22 104 22 101 22 105 22 104 22 105 22 106 22 105 22 101 22 107 22 107 22 101 22 108 22 108 22 101 22 109 22 109 22 101 22 110 22 111 22 106 22 105 22 112 22 98 22 103 22 112 23 99 23 98 23 99 23 112 23 113 23 114 24 115 24 116 24 117 24 118 24 119 24 113 24 97 24 99 24 97 24 113 24 120 24 97 24 120 24 102 24 102 24 120 24 115 24 102 24 115 24 121 24 121 24 115 24 114 24 102 24 121 24 118 24 102 24 118 24 117 24 102 24 117 24 122 24 115 13 106 13 116 13 106 13 115 13 104 13 115 18 103 18 104 18 103 18 115 18 120 18 103 12 113 12 112 12 113 12 103 12 120 12 114 25 106 25 111 25 106 25 114 25 116 25 111 12 121 12 114 12 121 12 111 12 105 12 101 12 122 12 110 12 122 12 101 12 102 12 118 18 105 18 107 18 105 18 118 18 121 18 117 26 108 26 109 26 108 26 117 26 119 26 118 13 108 13 119 13 108 13 118 13 107 13 109 27 122 27 117 27 122 27 109 27 110 27 123 0 124 0 125 0 124 0 123 0 126 0 126 1 127 1 128 1 127 1 126 1 123 1 100 2 124 2 129 2 124 2 100 2 125 2 128 3 124 3 126 3 124 3 128 3 129 3 128 4 100 4 129 4 100 4 128 4 127 4 100 5 123 5 125 5 123 5 100 5 127 5 102 0 130 0 131 0 130 0 102 0 132 0 132 1 133 1 134 1 133 1 132 1 102 1 135 2 130 2 136 2 130 2 135 2 131 2 134 3 130 3 132 3 130 3 134 3 136 3 134 4 135 4 136 4 135 4 134 4 133 4 135 5 102 5 131 5 102 5 135 5 133 5 137 10 138 10 78 10 138 10 137 10 139 10 140 15 141 15 142 15 141 15 140 15 143 15 140 18 138 18 139 18 138 18 140 18 142 18 137 12 140 12 139 12 140 12 137 12 143 12 141 16 137 16 78 16 137 16 141 16 143 16 141 13 138 13 142 13 138 13 141 13 78 13 144 12 145 12 146 12 145 12 144 12 133 12 146 15 147 15 148 15 147 15 146 15 145 15 147 13 149 13 148 13 149 13 147 13 141 13 133 10 149 10 141 10 149 10 133 10 144 10 146 21 149 21 144 21 149 21 146 21 148 21 147 16 133 16 141 16 133 16 147 16 145 16 73 0 150 0 151 0 150 0 73 0 152 0 152 1 153 1 154 1 153 1 152 1 73 1 155 2 150 2 156 2 150 2 155 2 151 2 154 3 150 3 152 3 150 3 154 3 156 3 154 4 155 4 156 4 155 4 154 4 153 4 155 5 73 5 151 5 73 5 155 5 153 5</p>
        </triangles>
      </mesh>
    </geometry>
  </library_geometries>
  <library_visual_scenes>
    <visual_scene id="DefaultScene">
      <node id="node_07894db1_de9e_4b99_8ad5_a72cfad9bffd" type="NODE">
        <matrix>1 0 0 0 0 1 0 0 0 0 1 0 0 0 0 1</matrix>
        <node id="node_4a9cf282_d1d0_434c_9b30_b14b346147b8" type="NODE">
          <matrix>1 0 0 0 0 1 0 0 0 0 1 0 0 0 0 1</matrix>
          <node id="node_4a9cf282_d1d0_434c_9b30_b14b346147b8_mesh0" type="NODE">
            <matrix>1 0 0 0 0 1 0 0 0 0 1 0 0 0 0 1</matrix>
            <instance_geometry url="#geometry_29e0380d_11b9_4f4e_940f_9216b9cb993b">
              <bind_material>
                <technique_common>
                  <instance_material symbol="mat_0" target="#mat_0"/>
                </technique_common>
              </bind_material>
            </instance_geometry>
          </node>
        </node>
      </node>
    </visual_scene>
  </library_visual_scenes>
  <scene>
    <instance_visual_scene url="#DefaultScene"/>
  </scene>
</COLLADA>
